<?xml version="1.0" encoding="utf-8" standalone="no"?>
<!DOCTYPE svg PUBLIC "-//W3C//DTD SVG 1.1//EN"
  "http://www.w3.org/Graphics/SVG/1.1/DTD/svg11.dtd">
<svg xmlns:xlink="http://www.w3.org/1999/xlink" width="288pt" height="864pt" viewBox="0 0 288 864" xmlns="http://www.w3.org/2000/svg" version="1.1">
 <metadata>
  <rdf:RDF xmlns:dc="http://purl.org/dc/elements/1.1/" xmlns:cc="http://creativecommons.org/ns#" xmlns:rdf="http://www.w3.org/1999/02/22-rdf-syntax-ns#">
   <cc:Work>
    <dc:type rdf:resource="http://purl.org/dc/dcmitype/StillImage"/>
    <dc:date>2024-04-19T18:34:29.542060</dc:date>
    <dc:format>image/svg+xml</dc:format>
    <dc:creator>
     <cc:Agent>
      <dc:title>Matplotlib v3.5.3, https://matplotlib.org/</dc:title>
     </cc:Agent>
    </dc:creator>
   </cc:Work>
  </rdf:RDF>
 </metadata>
 <defs>
  <style type="text/css">*{stroke-linejoin: round; stroke-linecap: butt}</style>
 </defs>
 <g id="figure_1">
  <g id="patch_1">
   <path d="M 0 864 
L 288 864 
L 288 0 
L 0 0 
z
" style="fill: #ffffff"/>
  </g>
  <g id="axes_1">
   <g id="patch_2">
    <path d="M 69.200635 814.909091 
L 148.774428 814.909091 
L 148.774428 760.798912 
L 69.200635 760.798912 
z
" clip-path="url(#p934bf114b3)" style="fill: #ffc0cb; stroke: #000000; stroke-width: 2; stroke-linejoin: miter"/>
   </g>
   <g id="patch_3">
    <path d="M 148.774428 814.909091 
L 215.616414 814.909091 
L 215.616414 735.335298 
L 148.774428 735.335298 
z
" clip-path="url(#p934bf114b3)" style="fill: #ffa500; stroke: #000000; stroke-width: 2; stroke-linejoin: miter"/>
   </g>
   <g id="patch_4">
    <path d="M 69.200635 760.798912 
L 148.774428 760.798912 
L 148.774428 706.688733 
L 69.200635 706.688733 
z
" clip-path="url(#p934bf114b3)" style="fill: #ffc0cb; stroke: #000000; stroke-width: 2; stroke-linejoin: miter"/>
   </g>
   <g id="patch_5">
    <path d="M 148.774428 735.335298 
L 215.616414 735.335298 
L 215.616414 655.761505 
L 148.774428 655.761505 
z
" clip-path="url(#p934bf114b3)" style="fill: #ffa500; stroke: #000000; stroke-width: 2; stroke-linejoin: miter"/>
   </g>
   <g id="patch_6">
    <path d="M 69.200635 706.688733 
L 148.774428 706.688733 
L 148.774428 652.578554 
L 69.200635 652.578554 
z
" clip-path="url(#p934bf114b3)" style="fill: #ffc0cb; stroke: #000000; stroke-width: 2; stroke-linejoin: miter"/>
   </g>
   <g id="patch_7">
    <path d="M 148.774428 655.761505 
L 215.616414 655.761505 
L 215.616414 576.187713 
L 148.774428 576.187713 
z
" clip-path="url(#p934bf114b3)" style="fill: #ffa500; stroke: #000000; stroke-width: 2; stroke-linejoin: miter"/>
   </g>
   <g id="patch_8">
    <path d="M 69.200635 652.578554 
L 148.774428 652.578554 
L 148.774428 598.468375 
L 69.200635 598.468375 
z
" clip-path="url(#p934bf114b3)" style="fill: #ffc0cb; stroke: #000000; stroke-width: 2; stroke-linejoin: miter"/>
   </g>
   <g id="patch_9">
    <path d="M 69.200635 598.468375 
L 148.774428 598.468375 
L 148.774428 544.358195 
L 69.200635 544.358195 
z
" clip-path="url(#p934bf114b3)" style="fill: #ffc0cb; stroke: #000000; stroke-width: 2; stroke-linejoin: miter"/>
   </g>
   <g id="patch_10">
    <path d="M 148.774428 576.187713 
L 215.616414 576.187713 
L 215.616414 496.61392 
L 148.774428 496.61392 
z
" clip-path="url(#p934bf114b3)" style="fill: #ffa500; stroke: #000000; stroke-width: 2; stroke-linejoin: miter"/>
   </g>
   <g id="patch_11">
    <path d="M 69.200635 544.358195 
L 148.774428 544.358195 
L 148.774428 490.248016 
L 69.200635 490.248016 
z
" clip-path="url(#p934bf114b3)" style="fill: #ffc0cb; stroke: #000000; stroke-width: 2; stroke-linejoin: miter"/>
   </g>
   <g id="patch_12">
    <path d="M 148.774428 496.61392 
L 215.616414 496.61392 
L 215.616414 417.040127 
L 148.774428 417.040127 
z
" clip-path="url(#p934bf114b3)" style="fill: #ffa500; stroke: #000000; stroke-width: 2; stroke-linejoin: miter"/>
   </g>
   <g id="patch_13">
    <path d="M 69.200635 490.248016 
L 148.774428 490.248016 
L 148.774428 436.137837 
L 69.200635 436.137837 
z
" clip-path="url(#p934bf114b3)" style="fill: #ffc0cb; stroke: #000000; stroke-width: 2; stroke-linejoin: miter"/>
   </g>
   <g id="patch_14">
    <path d="M 69.200635 436.137837 
L 148.774428 436.137837 
L 148.774428 382.027658 
L 69.200635 382.027658 
z
" clip-path="url(#p934bf114b3)" style="fill: #ffc0cb; stroke: #000000; stroke-width: 2; stroke-linejoin: miter"/>
   </g>
   <g id="patch_15">
    <path d="M 148.774428 417.040127 
L 215.616414 417.040127 
L 215.616414 337.466334 
L 148.774428 337.466334 
z
" clip-path="url(#p934bf114b3)" style="fill: #ffa500; stroke: #000000; stroke-width: 2; stroke-linejoin: miter"/>
   </g>
   <g id="patch_16">
    <path d="M 69.200635 382.027658 
L 148.774428 382.027658 
L 148.774428 327.917479 
L 69.200635 327.917479 
z
" clip-path="url(#p934bf114b3)" style="fill: #ffc0cb; stroke: #000000; stroke-width: 2; stroke-linejoin: miter"/>
   </g>
   <g id="patch_17">
    <path d="M 148.774428 337.466334 
L 202.884607 337.466334 
L 202.884607 257.892541 
L 148.774428 257.892541 
z
" clip-path="url(#p934bf114b3)" style="fill: #ffc0cb; stroke: #000000; stroke-width: 2; stroke-linejoin: miter"/>
   </g>
   <g id="patch_18">
    <path d="M 69.200635 327.917479 
L 148.774428 327.917479 
L 148.774428 273.8073 
L 69.200635 273.8073 
z
" clip-path="url(#p934bf114b3)" style="fill: #ffc0cb; stroke: #000000; stroke-width: 2; stroke-linejoin: miter"/>
   </g>
   <g id="patch_19">
    <path d="M 69.200635 273.8073 
L 148.774428 273.8073 
L 148.774428 219.697121 
L 69.200635 219.697121 
z
" clip-path="url(#p934bf114b3)" style="fill: #ffc0cb; stroke: #000000; stroke-width: 2; stroke-linejoin: miter"/>
   </g>
   <g id="patch_20">
    <path d="M 148.774428 257.892541 
L 190.1528 257.892541 
L 190.1528 222.880073 
L 148.774428 222.880073 
z
" clip-path="url(#p934bf114b3)" style="fill: #800080; stroke: #000000; stroke-width: 2; stroke-linejoin: miter"/>
   </g>
   <g id="patch_21">
    <path d="M 148.774428 222.880073 
L 190.1528 222.880073 
L 190.1528 187.867604 
L 148.774428 187.867604 
z
" clip-path="url(#p934bf114b3)" style="fill: #800080; stroke: #000000; stroke-width: 2; stroke-linejoin: miter"/>
   </g>
   <g id="patch_22">
    <path d="M 69.200635 219.697121 
L 110.579007 219.697121 
L 110.579007 184.684652 
L 69.200635 184.684652 
z
" clip-path="url(#p934bf114b3)" style="fill: #800080; stroke: #000000; stroke-width: 2; stroke-linejoin: miter"/>
   </g>
   <g id="patch_23">
    <path d="M 110.579007 219.697121 
L 145.591476 219.697121 
L 145.591476 178.318749 
L 110.579007 178.318749 
z
" clip-path="url(#p934bf114b3)" style="fill: #800080; stroke: #000000; stroke-width: 2; stroke-linejoin: miter"/>
   </g>
   <g id="patch_24">
    <path d="M 69.200635 184.684652 
L 110.579007 184.684652 
L 110.579007 149.672183 
L 69.200635 149.672183 
z
" clip-path="url(#p934bf114b3)" style="fill: #800080; stroke: #000000; stroke-width: 2; stroke-linejoin: miter"/>
   </g>
   <g id="patch_25">
    <path d="M 145.591476 187.867604 
L 186.969848 187.867604 
L 186.969848 152.855135 
L 145.591476 152.855135 
z
" clip-path="url(#p934bf114b3)" style="fill: #800080; stroke: #000000; stroke-width: 2; stroke-linejoin: miter"/>
   </g>
   <g id="patch_26">
    <path d="M 110.579007 178.318749 
L 145.591476 178.318749 
L 145.591476 136.940376 
L 110.579007 136.940376 
z
" clip-path="url(#p934bf114b3)" style="fill: #800080; stroke: #000000; stroke-width: 2; stroke-linejoin: miter"/>
   </g>
   <g id="patch_27">
    <path d="M 69.200635 149.672183 
L 110.579007 149.672183 
L 110.579007 114.659714 
L 69.200635 114.659714 
z
" clip-path="url(#p934bf114b3)" style="fill: #800080; stroke: #000000; stroke-width: 2; stroke-linejoin: miter"/>
   </g>
   <g id="patch_28">
    <path d="M 69.200635 114.659714 
L 104.213104 114.659714 
L 104.213104 73.281342 
L 69.200635 73.281342 
z
" clip-path="url(#p934bf114b3)" style="fill: #800080; stroke: #000000; stroke-width: 2; stroke-linejoin: miter"/>
   </g>
   <g id="patch_29">
    <path d="M 104.213104 114.659714 
L 139.225572 114.659714 
L 139.225572 73.281342 
L 104.213104 73.281342 
z
" clip-path="url(#p934bf114b3)" style="fill: #800080; stroke: #000000; stroke-width: 2; stroke-linejoin: miter"/>
   </g>
   <g id="patch_30">
    <path d="M 145.591476 152.855135 
L 186.969848 152.855135 
L 186.969848 117.842666 
L 145.591476 117.842666 
z
" clip-path="url(#p934bf114b3)" style="fill: #800080; stroke: #000000; stroke-width: 2; stroke-linejoin: miter"/>
   </g>
   <g id="line2d_1">
    <path d="M 69.200635 814.909091 
L 218.799365 814.909091 
L 218.799365 49.090909 
L 69.200635 49.090909 
L 69.200635 814.909091 
" clip-path="url(#p934bf114b3)" style="fill: none; stroke: #000000; stroke-width: 2.5; stroke-linecap: square"/>
   </g>
  </g>
 </g>
 <defs>
  <clipPath id="p934bf114b3">
   <rect x="10.8" y="10.8" width="266.4" height="842.4"/>
  </clipPath>
 </defs>
</svg>
