<?xml version="1.0" encoding="utf-8" standalone="no"?>
<!DOCTYPE svg PUBLIC "-//W3C//DTD SVG 1.1//EN"
  "http://www.w3.org/Graphics/SVG/1.1/DTD/svg11.dtd">
<svg xmlns:xlink="http://www.w3.org/1999/xlink" width="288pt" height="864pt" viewBox="0 0 288 864" xmlns="http://www.w3.org/2000/svg" version="1.1">
 <metadata>
  <rdf:RDF xmlns:dc="http://purl.org/dc/elements/1.1/" xmlns:cc="http://creativecommons.org/ns#" xmlns:rdf="http://www.w3.org/1999/02/22-rdf-syntax-ns#">
   <cc:Work>
    <dc:type rdf:resource="http://purl.org/dc/dcmitype/StillImage"/>
    <dc:date>2024-04-19T16:35:40.893218</dc:date>
    <dc:format>image/svg+xml</dc:format>
    <dc:creator>
     <cc:Agent>
      <dc:title>Matplotlib v3.5.3, https://matplotlib.org/</dc:title>
     </cc:Agent>
    </dc:creator>
   </cc:Work>
  </rdf:RDF>
 </metadata>
 <defs>
  <style type="text/css">*{stroke-linejoin: round; stroke-linecap: butt}</style>
 </defs>
 <g id="figure_1">
  <g id="patch_1">
   <path d="M 0 864 
L 288 864 
L 288 0 
L 0 0 
z
" style="fill: #ffffff"/>
  </g>
  <g id="axes_1">
   <g id="patch_2">
    <path d="M 69.200635 814.909091 
L 148.774428 814.909091 
L 148.774428 760.798912 
L 69.200635 760.798912 
z
" clip-path="url(#p542f40ce97)" style="fill: #ffc0cb; stroke: #000000; stroke-width: 2; stroke-linejoin: miter"/>
   </g>
   <g id="patch_3">
    <path d="M 148.774428 814.909091 
L 215.616414 814.909091 
L 215.616414 773.530719 
L 148.774428 773.530719 
z
" clip-path="url(#p542f40ce97)" style="fill: #0000ff; stroke: #000000; stroke-width: 2; stroke-linejoin: miter"/>
   </g>
   <g id="patch_4">
    <path d="M 148.774428 773.530719 
L 215.616414 773.530719 
L 215.616414 732.152346 
L 148.774428 732.152346 
z
" clip-path="url(#p542f40ce97)" style="fill: #0000ff; stroke: #000000; stroke-width: 2; stroke-linejoin: miter"/>
   </g>
   <g id="patch_5">
    <path d="M 69.200635 760.798912 
L 148.774428 760.798912 
L 148.774428 706.688733 
L 69.200635 706.688733 
z
" clip-path="url(#p542f40ce97)" style="fill: #ffc0cb; stroke: #000000; stroke-width: 2; stroke-linejoin: miter"/>
   </g>
   <g id="patch_6">
    <path d="M 148.774428 732.152346 
L 215.616414 732.152346 
L 215.616414 690.773974 
L 148.774428 690.773974 
z
" clip-path="url(#p542f40ce97)" style="fill: #0000ff; stroke: #000000; stroke-width: 2; stroke-linejoin: miter"/>
   </g>
   <g id="patch_7">
    <path d="M 69.200635 706.688733 
L 148.774428 706.688733 
L 148.774428 652.578554 
L 69.200635 652.578554 
z
" clip-path="url(#p542f40ce97)" style="fill: #ffc0cb; stroke: #000000; stroke-width: 2; stroke-linejoin: miter"/>
   </g>
   <g id="patch_8">
    <path d="M 148.774428 690.773974 
L 215.616414 690.773974 
L 215.616414 649.395602 
L 148.774428 649.395602 
z
" clip-path="url(#p542f40ce97)" style="fill: #0000ff; stroke: #000000; stroke-width: 2; stroke-linejoin: miter"/>
   </g>
   <g id="patch_9">
    <path d="M 69.200635 652.578554 
L 148.774428 652.578554 
L 148.774428 598.468375 
L 69.200635 598.468375 
z
" clip-path="url(#p542f40ce97)" style="fill: #ffc0cb; stroke: #000000; stroke-width: 2; stroke-linejoin: miter"/>
   </g>
   <g id="patch_10">
    <path d="M 148.774428 649.395602 
L 215.616414 649.395602 
L 215.616414 608.01723 
L 148.774428 608.01723 
z
" clip-path="url(#p542f40ce97)" style="fill: #0000ff; stroke: #000000; stroke-width: 2; stroke-linejoin: miter"/>
   </g>
   <g id="patch_11">
    <path d="M 148.774428 608.01723 
L 215.616414 608.01723 
L 215.616414 566.638857 
L 148.774428 566.638857 
z
" clip-path="url(#p542f40ce97)" style="fill: #0000ff; stroke: #000000; stroke-width: 2; stroke-linejoin: miter"/>
   </g>
   <g id="patch_12">
    <path d="M 69.200635 598.468375 
L 148.774428 598.468375 
L 148.774428 544.358195 
L 69.200635 544.358195 
z
" clip-path="url(#p542f40ce97)" style="fill: #ffc0cb; stroke: #000000; stroke-width: 2; stroke-linejoin: miter"/>
   </g>
   <g id="patch_13">
    <path d="M 148.774428 566.638857 
L 215.616414 566.638857 
L 215.616414 525.260485 
L 148.774428 525.260485 
z
" clip-path="url(#p542f40ce97)" style="fill: #0000ff; stroke: #000000; stroke-width: 2; stroke-linejoin: miter"/>
   </g>
   <g id="patch_14">
    <path d="M 69.200635 544.358195 
L 148.774428 544.358195 
L 148.774428 490.248016 
L 69.200635 490.248016 
z
" clip-path="url(#p542f40ce97)" style="fill: #ffc0cb; stroke: #000000; stroke-width: 2; stroke-linejoin: miter"/>
   </g>
   <g id="patch_15">
    <path d="M 148.774428 525.260485 
L 215.616414 525.260485 
L 215.616414 483.882113 
L 148.774428 483.882113 
z
" clip-path="url(#p542f40ce97)" style="fill: #0000ff; stroke: #000000; stroke-width: 2; stroke-linejoin: miter"/>
   </g>
   <g id="patch_16">
    <path d="M 69.200635 490.248016 
L 148.774428 490.248016 
L 148.774428 436.137837 
L 69.200635 436.137837 
z
" clip-path="url(#p542f40ce97)" style="fill: #ffc0cb; stroke: #000000; stroke-width: 2; stroke-linejoin: miter"/>
   </g>
   <g id="patch_17">
    <path d="M 148.774428 483.882113 
L 215.616414 483.882113 
L 215.616414 442.503741 
L 148.774428 442.503741 
z
" clip-path="url(#p542f40ce97)" style="fill: #0000ff; stroke: #000000; stroke-width: 2; stroke-linejoin: miter"/>
   </g>
   <g id="patch_18">
    <path d="M 148.774428 442.503741 
L 215.616414 442.503741 
L 215.616414 401.125368 
L 148.774428 401.125368 
z
" clip-path="url(#p542f40ce97)" style="fill: #0000ff; stroke: #000000; stroke-width: 2; stroke-linejoin: miter"/>
   </g>
   <g id="patch_19">
    <path d="M 69.200635 436.137837 
L 148.774428 436.137837 
L 148.774428 382.027658 
L 69.200635 382.027658 
z
" clip-path="url(#p542f40ce97)" style="fill: #ffc0cb; stroke: #000000; stroke-width: 2; stroke-linejoin: miter"/>
   </g>
   <g id="patch_20">
    <path d="M 148.774428 401.125368 
L 215.616414 401.125368 
L 215.616414 359.746996 
L 148.774428 359.746996 
z
" clip-path="url(#p542f40ce97)" style="fill: #0000ff; stroke: #000000; stroke-width: 2; stroke-linejoin: miter"/>
   </g>
   <g id="patch_21">
    <path d="M 69.200635 382.027658 
L 148.774428 382.027658 
L 148.774428 327.917479 
L 69.200635 327.917479 
z
" clip-path="url(#p542f40ce97)" style="fill: #ffc0cb; stroke: #000000; stroke-width: 2; stroke-linejoin: miter"/>
   </g>
   <g id="patch_22">
    <path d="M 148.774428 359.746996 
L 215.616414 359.746996 
L 215.616414 318.368624 
L 148.774428 318.368624 
z
" clip-path="url(#p542f40ce97)" style="fill: #0000ff; stroke: #000000; stroke-width: 2; stroke-linejoin: miter"/>
   </g>
   <g id="patch_23">
    <path d="M 69.200635 327.917479 
L 148.774428 327.917479 
L 148.774428 273.8073 
L 69.200635 273.8073 
z
" clip-path="url(#p542f40ce97)" style="fill: #ffc0cb; stroke: #000000; stroke-width: 2; stroke-linejoin: miter"/>
   </g>
   <g id="patch_24">
    <path d="M 148.774428 318.368624 
L 202.884607 318.368624 
L 202.884607 238.794831 
L 148.774428 238.794831 
z
" clip-path="url(#p542f40ce97)" style="fill: #ffc0cb; stroke: #000000; stroke-width: 2; stroke-linejoin: miter"/>
   </g>
   <g id="line2d_1">
    <path d="M 69.200635 814.909091 
L 218.799365 814.909091 
L 218.799365 49.090909 
L 69.200635 49.090909 
L 69.200635 814.909091 
" clip-path="url(#p542f40ce97)" style="fill: none; stroke: #000000; stroke-width: 2.5; stroke-linecap: square"/>
   </g>
  </g>
 </g>
 <defs>
  <clipPath id="p542f40ce97">
   <rect x="10.8" y="10.8" width="266.4" height="842.4"/>
  </clipPath>
 </defs>
</svg>
